# xmcd
#
# Track frame offsets:
#	150
#	11963
#	33548
#	74390
#	81958
#	86675
#	95235
#	99983
#	103860
#	116350
#	147945
#	162303
#	178588
#	197153
#
# Disc length: 3108 seconds
#
# Revision: 0
# Processed by: cddbd v1.5.2PL0 Copyright (c) Steve Scherf et al.
# Submitted via: dBpowerAMP V4.0
#
DISCID=c30c220e
DTITLE=Jodlerlub - JODEL DU MUOTATAL
DYEAR=1900
DGENRE=Ethnic
TTITLE0=Chueraiheli
TTITLE1=Quatre Jüüzli
TTITLE2=Huit Jüüzli
TTITLE3=Deux pièces pour Büchel
TTITLE4=Pièce pour Büchel droit
TTITLE5=Pièce pour Büchel
TTITLE6=Pièce pour Büchel
TTITLE7=Pièce pour Büchel
TTITLE8=Trois Jüüzli
TTITLE9=Cinq Jüüzli
TTITLE10=Trois Jüüzli
TTITLE11=Trois Jüüzli
TTITLE12=Trois Jüüzli
TTITLE13=Cloches, fouets et Jüüzli
EXTD=
EXTT0=
EXTT1=
EXTT2=
EXTT3=
EXTT4=
EXTT5=
EXTT6=
EXTT7=
EXTT8=
EXTT9=
EXTT10=
EXTT11=
EXTT12=
EXTT13=
PLAYORDER=
